<svg width="7" height="7" viewBox="0 0 7 7" fill="none" xmlns="http://www.w3.org/2000/svg">
<path d="M6.54604 4.68384C6.12072 4.68384 5.71242 4.61579 5.33133 4.4899C5.21224 4.45247 5.07954 4.47969 4.98427 4.57156L4.23571 5.32012C3.27279 4.83015 2.48341 4.04416 1.99344 3.07784L2.742 2.32588C2.83727 2.23741 2.86449 2.10471 2.82706 1.98563C2.70117 1.60454 2.63312 1.19624 2.63312 0.770918C2.63312 0.583778 2.48 0.430664 2.29286 0.430664H1.10197C0.914833 0.430664 0.761719 0.583778 0.761719 0.770918C0.761719 3.96591 3.35105 6.55524 6.54604 6.55524C6.73318 6.55524 6.88629 6.40213 6.88629 6.21499V5.0241C6.88629 4.83696 6.73318 4.68384 6.54604 4.68384ZM6.20579 3.49295H6.88629C6.88629 1.80189 5.51507 0.430664 3.82401 0.430664V1.11117C5.14079 1.11117 6.20579 2.17617 6.20579 3.49295ZM4.84477 3.49295H5.52528C5.52528 2.55385 4.76311 1.79168 3.82401 1.79168V2.47219C4.38883 2.47219 4.84477 2.92813 4.84477 3.49295Z" fill="white"/>
</svg>
