<svg width="9" height="8" viewBox="0 0 9 8" fill="none" xmlns="http://www.w3.org/2000/svg">
<path d="M4.46978 6.8883C4.16724 6.53308 3.66223 6.15315 3.17314 5.91278C2.67929 5.67004 2.21021 5.53523 1.67763 5.48309C1.57263 5.47291 1.48557 5.46341 1.48418 5.46205C1.48282 5.46205 1.48554 4.3657 1.49097 3.02877L1.49993 0.598079L1.59689 0.607582C2.19226 0.666639 2.85677 0.891598 3.35956 1.20514C3.79286 1.47531 4.24031 1.89251 4.52558 2.29226L4.59737 2.39286V4.70178C4.59737 5.97163 4.59194 7.01042 4.58543 7.01022C4.57864 7.01002 4.52698 6.95524 4.47008 6.88844L4.46978 6.8883ZM4.96298 4.69594V2.37738L5.10162 2.19214C5.27864 1.95564 5.63469 1.59933 5.87012 1.42318C6.49948 0.952148 7.18217 0.685985 7.96594 0.605885L8.06537 0.595703V3.02979V5.46395L7.95003 5.47481C6.85869 5.57636 5.91256 6.02662 5.17252 6.79653L4.96298 7.01456V4.69601V4.69594ZM5.63915 6.85694C6.06749 6.45509 6.63453 6.13577 7.20413 5.9755C7.50219 5.89167 7.88981 5.83316 8.14712 5.83316C8.28203 5.83316 8.35686 5.80397 8.39907 5.73466C8.43084 5.68239 8.43118 5.65992 8.43124 3.68756L8.4313 1.69307L8.49097 1.70393C8.52375 1.71072 8.61685 1.73652 8.69779 1.76231L8.84495 1.80915V4.29829C8.84495 5.66732 8.83952 6.78743 8.8328 6.78743C8.82602 6.78743 8.72766 6.76639 8.61404 6.74059C8.16505 6.63945 7.7953 6.6047 7.30969 6.6178C6.72067 6.63409 6.2629 6.71623 5.71872 6.90426L5.51189 6.97574L5.63917 6.85633L5.63915 6.85694ZM3.82544 6.89564C3.59945 6.81472 3.22622 6.71935 2.97427 6.67821C2.63169 6.62255 2.39534 6.60775 1.97546 6.61712C1.55828 6.62594 1.30594 6.65513 0.961696 6.73326C0.86544 6.75498 0.766998 6.77739 0.742934 6.78214L0.699219 6.79164L0.699293 4.29585L0.699375 1.79999L0.886245 1.74568C0.989018 1.71581 1.08206 1.68798 1.093 1.68459C1.10881 1.6778 1.11289 2.08441 1.11289 3.67684C1.11289 5.85291 1.10814 5.73161 1.20098 5.79263C1.2333 5.81367 1.30043 5.82318 1.49215 5.83472C2.25409 5.87816 2.97707 6.13401 3.56729 6.56933C3.69457 6.66321 4.00003 6.92102 4.01754 6.94933C4.02976 6.96902 4.02161 6.96698 3.82549 6.89638L3.82544 6.89564Z" fill="#1D5DB5"/>
</svg>
