<svg width="9" height="8" viewBox="0 0 9 8" fill="none" xmlns="http://www.w3.org/2000/svg">
<path d="M4.19404 6.88302C3.89075 6.52691 3.38447 6.14603 2.89416 5.90506C2.39908 5.66171 1.92883 5.52656 1.39492 5.4743C1.28965 5.46409 1.20238 5.45457 1.20098 5.4532C1.19962 5.4532 1.20234 4.35412 1.20779 3.01385L1.21677 0.577089L1.31397 0.586616C1.91083 0.64582 2.577 0.871341 3.08104 1.18567C3.51543 1.45651 3.964 1.87475 4.24998 2.2755L4.32195 2.37635V4.69103C4.32195 5.96406 4.31651 7.00544 4.30997 7.00524C4.30317 7.00504 4.25138 6.95012 4.19434 6.88316L4.19404 6.88302ZM4.68847 4.68518V2.36084L4.82746 2.17513C5.00492 1.93804 5.36186 1.58084 5.59788 1.40425C6.2288 0.932042 6.9132 0.665215 7.69893 0.584915L7.79861 0.574707V3.01487V5.45511L7.68298 5.466C6.58891 5.5678 5.64042 6.01918 4.89853 6.79102L4.68847 7.00959V4.68525V4.68518ZM5.36633 6.85158C5.79573 6.44872 6.36419 6.12861 6.93521 5.96794C7.23402 5.8839 7.62261 5.82524 7.88056 5.82524C8.01581 5.82524 8.09082 5.79598 8.13314 5.7265C8.16499 5.6741 8.16533 5.65157 8.16539 3.67429L8.16545 1.67482L8.22527 1.68571C8.25813 1.69251 8.35146 1.71837 8.4326 1.74423L8.58014 1.79118V4.28654C8.58014 5.65899 8.57469 6.7819 8.56796 6.7819C8.56115 6.7819 8.46255 6.7608 8.34865 6.73494C7.89854 6.63355 7.52786 6.5987 7.04104 6.61184C6.45055 6.62817 5.99163 6.71051 5.4461 6.89901L5.23875 6.97067L5.36635 6.85097L5.36633 6.85158ZM3.54809 6.89037C3.32154 6.80925 2.94738 6.71364 2.69479 6.6724C2.35135 6.6166 2.11442 6.60177 1.69349 6.61116C1.27527 6.62 1.02229 6.64927 0.677195 6.72759C0.580699 6.74937 0.482011 6.77183 0.457887 6.77659L0.414062 6.78612L0.414137 4.28409L0.414219 1.782L0.601556 1.72756C0.704585 1.69761 0.797862 1.66971 0.808825 1.66631C0.824681 1.65951 0.828764 2.06713 0.828764 3.66353C0.828764 5.84504 0.824001 5.72343 0.917081 5.78461C0.949473 5.80571 1.01678 5.81523 1.20897 5.8268C1.97281 5.87036 2.6976 6.12684 3.2893 6.56325C3.41689 6.65736 3.72312 6.91582 3.74067 6.9442C3.75292 6.96393 3.74475 6.96189 3.54814 6.89112L3.54809 6.89037Z" fill="#1D5DB5"/>
</svg>
