<svg width="6" height="6" viewBox="0 0 6 6" fill="none" xmlns="http://www.w3.org/2000/svg">
<path opacity="0.8" d="M5.21376 4.24333C4.88296 4.24333 4.56539 4.1904 4.26899 4.09248C4.17636 4.06337 4.07315 4.08454 3.99905 4.156L3.41684 4.73821C2.6679 4.35713 2.05393 3.7458 1.67285 2.99422L2.25506 2.40936C2.32916 2.34055 2.35033 2.23734 2.32122 2.14472C2.2233 1.84832 2.17038 1.53075 2.17038 1.19994C2.17038 1.05439 2.05129 0.935303 1.90573 0.935303H0.979486C0.833933 0.935303 0.714844 1.05439 0.714844 1.19994C0.714844 3.68494 2.72877 5.69886 5.21376 5.69886C5.35931 5.69886 5.4784 5.57977 5.4784 5.43422V4.50797C5.4784 4.36242 5.35931 4.24333 5.21376 4.24333ZM4.94912 3.31708H5.4784C5.4784 2.00181 4.4119 0.935303 3.09662 0.935303V1.46459C4.12079 1.46459 4.94912 2.29292 4.94912 3.31708ZM3.89055 3.31708H4.41983C4.41983 2.58667 3.82704 1.99387 3.09662 1.99387V2.52316C3.53593 2.52316 3.89055 2.87778 3.89055 3.31708Z" fill="black"/>
</svg>
