<svg width="292" height="50" viewBox="0 0 292 50" fill="none" xmlns="http://www.w3.org/2000/svg">
<path d="M7.1825 12.364H11.0345C11.7785 12.364 12.4025 12.596 12.9065 13.06C13.4185 13.516 13.6745 14.112 13.6745 14.848C13.6745 15.592 13.4185 16.192 12.9065 16.648C12.4025 17.104 11.7785 17.332 11.0345 17.332H7.8545V19H7.1825V12.364ZM7.8545 12.988V16.708H11.0345C11.6265 16.708 12.1025 16.54 12.4625 16.204C12.8305 15.868 13.0145 15.416 13.0145 14.848C13.0145 14.28 12.8305 13.828 12.4625 13.492C12.1025 13.156 11.6265 12.988 11.0345 12.988H7.8545ZM17.7389 12.976L15.9269 17.248H20.7389L18.9629 12.976H17.7389ZM17.3549 12.364H19.3949L22.2149 19H21.5189L21.0389 17.884H15.6629L15.1709 19H14.4509L17.3549 12.364ZM25.6297 15.064H28.0057C28.3977 15.064 28.7057 14.984 28.9297 14.824C29.1617 14.656 29.2777 14.408 29.2777 14.08C29.2777 13.24 28.4497 12.82 26.7937 12.82C25.8017 12.82 24.8937 13.06 24.0697 13.54L23.7697 12.988C24.6977 12.468 25.7097 12.208 26.8057 12.208C27.6937 12.208 28.4137 12.336 28.9657 12.592C29.6137 12.896 29.9377 13.372 29.9377 14.02C29.9377 14.596 29.6697 15.016 29.1337 15.28C29.5337 15.368 29.8417 15.564 30.0577 15.868C30.2817 16.164 30.3937 16.512 30.3937 16.912C30.3937 17.528 30.1217 18.044 29.5777 18.46C28.9457 18.932 27.9937 19.168 26.7217 19.168C25.4577 19.168 24.3537 18.892 23.4097 18.34L23.7217 17.776C24.6417 18.288 25.6697 18.544 26.8057 18.544C27.7017 18.544 28.4097 18.404 28.9297 18.124C29.4577 17.836 29.7217 17.432 29.7217 16.912C29.7217 16.088 29.1897 15.676 28.1257 15.676H25.6297V15.064ZM31.8992 12.364H35.7512C36.4952 12.364 37.1192 12.596 37.6232 13.06C38.1352 13.516 38.3912 14.112 38.3912 14.848C38.3912 15.592 38.1352 16.192 37.6232 16.648C37.1192 17.104 36.4952 17.332 35.7512 17.332H32.5712V19H31.8992V12.364ZM32.5712 12.988V16.708H35.7512C36.3432 16.708 36.8192 16.54 37.1792 16.204C37.5472 15.868 37.7312 15.416 37.7312 14.848C37.7312 14.28 37.5472 13.828 37.1792 13.492C36.8192 13.156 36.3432 12.988 35.7512 12.988H32.5712ZM42.4557 12.976L40.6437 17.248H45.4557L43.6797 12.976H42.4557ZM42.0717 12.364H44.1117L46.9317 19H46.2357L45.7557 17.884H40.3797L39.8877 19H39.1677L42.0717 12.364ZM48.4864 12.364H53.9944V12.988H49.1584V14.848H52.6384C53.2704 14.848 53.7984 15.04 54.2224 15.424C54.6544 15.8 54.8704 16.288 54.8704 16.888C54.8704 17.48 54.6544 17.98 54.2224 18.388C53.7904 18.796 53.2624 19 52.6384 19H48.4864V12.364ZM49.1584 15.46V18.376H52.5184C53.0784 18.376 53.4984 18.24 53.7784 17.968C54.0584 17.696 54.1984 17.336 54.1984 16.888C54.1984 16.448 54.0544 16.1 53.7664 15.844C53.4864 15.588 53.0664 15.46 52.5064 15.46H49.1584ZM56.8018 15.688C56.8098 16.576 57.0938 17.276 57.6538 17.788C58.2218 18.292 58.9418 18.544 59.8138 18.544C60.6858 18.544 61.4058 18.292 61.9738 17.788C62.5418 17.276 62.8258 16.576 62.8258 15.688C62.8258 14.8 62.5418 14.104 61.9738 13.6C61.4058 13.088 60.6858 12.832 59.8138 12.832C58.9418 12.832 58.2218 13.088 57.6538 13.6C57.0938 14.104 56.8098 14.8 56.8018 15.688ZM62.4538 13.168C63.1498 13.808 63.4978 14.648 63.4978 15.688C63.4978 16.728 63.1498 17.568 62.4538 18.208C61.7658 18.848 60.8858 19.168 59.8138 19.168C58.7418 19.168 57.8578 18.848 57.1618 18.208C56.4738 17.568 56.1298 16.728 56.1298 15.688C56.1298 14.648 56.4738 13.808 57.1618 13.168C57.8578 12.528 58.7418 12.208 59.8138 12.208C60.8858 12.208 61.7658 12.528 62.4538 13.168ZM64.4675 12.364H71.2595V12.988H68.1995V19H67.5275V12.988H64.4675V12.364ZM72.6992 12.364H73.3712V15.148H76.4192L78.3392 12.364H79.1192L77.0312 15.424L79.3112 19H78.5192L76.4432 15.76H73.3712V19H72.6992V12.364ZM83.6892 12.976L81.8772 17.248H86.6892L84.9132 12.976H83.6892ZM83.3052 12.364H85.3452L88.1652 19H87.4692L86.9892 17.884H81.6132L81.1212 19H80.4012L83.3052 12.364ZM31.4468 31.364H36.3668V37.376H37.2188V39.44H36.6788L36.5948 38H29.8868L29.7788 39.44H29.2508V37.376H30.1508L31.4468 31.364ZM31.9748 31.976L30.8828 37.376H35.6948V31.976H31.9748ZM38.6544 31.364H39.3264V37.172L44.6784 31.364H45.4104V38H44.7384V32.228L39.3984 38H38.6544V31.364ZM49.0658 34.064H51.4418C51.8338 34.064 52.1418 33.984 52.3658 33.824C52.5978 33.656 52.7138 33.408 52.7138 33.08C52.7138 32.24 51.8858 31.82 50.2298 31.82C49.2378 31.82 48.3298 32.06 47.5058 32.54L47.2058 31.988C48.1338 31.468 49.1458 31.208 50.2418 31.208C51.1298 31.208 51.8498 31.336 52.4018 31.592C53.0498 31.896 53.3738 32.372 53.3738 33.02C53.3738 33.596 53.1058 34.016 52.5698 34.28C52.9698 34.368 53.2778 34.564 53.4938 34.868C53.7178 35.164 53.8298 35.512 53.8298 35.912C53.8298 36.528 53.5578 37.044 53.0138 37.46C52.3818 37.932 51.4298 38.168 50.1578 38.168C48.8938 38.168 47.7898 37.892 46.8458 37.34L47.1578 36.776C48.0778 37.288 49.1058 37.544 50.2418 37.544C51.1378 37.544 51.8458 37.404 52.3658 37.124C52.8938 36.836 53.1578 36.432 53.1578 35.912C53.1578 35.088 52.6258 34.676 51.5618 34.676H49.0658V34.064ZM58.02 31.976L56.208 36.248H61.02L59.244 31.976H58.02ZM57.636 31.364H59.676L62.496 38H61.8L61.32 36.884H55.944L55.452 38H54.732L57.636 31.364ZM64.0508 31.364H64.7228V37.172L70.0748 31.364H70.8068V38H70.1348V32.228L64.7948 38H64.0508V31.364ZM68.7308 29.456L69.1508 29.768C68.7428 30.408 68.1668 30.728 67.4228 30.728C66.6788 30.728 66.1028 30.408 65.6948 29.768L66.1148 29.456C66.4748 29.928 66.9108 30.164 67.4228 30.164C67.9348 30.164 68.3708 29.928 68.7308 29.456ZM72.6022 31.364H73.2742V34.232H78.5302V31.364H79.2022V38H78.5302V34.856H73.2742V38H72.6022V31.364ZM84.0493 31.976L82.2373 36.248H87.0493L85.2733 31.976H84.0493ZM83.6653 31.364H85.7053L88.5253 38H87.8293L87.3493 36.884H81.9733L81.4813 38H80.7613L83.6653 31.364Z" fill="white"/>
<rect x="109.5" y="0.5" width="182" height="49" rx="9.5" stroke="white"/>
<path d="M152.599 19.4742V29.7417H149.301V19.4742H152.599Z" fill="white"/>
<path d="M158.741 26.5676V29.7417H155.443V19.4742H162.674C164.339 19.4742 165.54 19.7962 166.276 20.4402C166.902 20.9923 167.214 21.8157 167.214 22.9105V23.0761C167.214 24.1802 166.897 25.0128 166.262 25.574C165.508 26.2364 164.312 26.5676 162.674 26.5676H158.741ZM158.741 24.1112H162.398C163.327 24.1112 163.792 23.7523 163.792 23.0347V22.9933C163.792 22.2941 163.327 21.9445 162.398 21.9445H158.741V24.1112Z" fill="white"/>
<path d="M177.553 29.7417L176.753 27.9615H171.329L170.542 29.7417H167.244L171.909 19.4742H176.256L181.072 29.7417H177.553ZM175.745 25.6982L174.02 21.8617L172.336 25.6982H175.745Z" fill="white"/>
<path d="M187.951 29.8936C185.853 29.8936 184.275 29.3231 183.217 28.1823C182.775 27.7131 182.449 27.1795 182.237 26.5814C182.035 25.9742 181.934 25.3578 181.934 24.7322V24.401C181.934 23.5729 182.113 22.8047 182.472 22.0963C182.877 21.2591 183.516 20.6058 184.39 20.1366C185.411 19.5938 186.695 19.3224 188.24 19.3224H188.71C190.918 19.3224 192.565 19.7456 193.65 20.592C194.083 20.9324 194.395 21.3189 194.589 21.7513C194.791 22.1745 194.892 22.6023 194.892 23.0347V23.0761H191.456L191.304 22.7725C191.102 22.4505 190.66 22.1975 189.979 22.0135C189.593 21.9123 189.096 21.8617 188.489 21.8617C187.376 21.8617 186.548 22.1331 186.005 22.6759C185.572 23.1175 185.356 23.7155 185.356 24.47V24.6356C185.356 24.9668 185.411 25.2934 185.522 25.6154C185.632 25.9282 185.807 26.2088 186.046 26.4572C186.598 27.0553 187.431 27.3543 188.544 27.3543C189.547 27.3543 190.315 27.1611 190.849 26.7746C191.162 26.5354 191.359 26.2594 191.442 25.9466H188.572V24.0698H195.016V29.7417H192.56C192.542 29.5577 192.491 29.3277 192.408 29.0517C192.371 28.9229 192.284 28.6975 192.146 28.3755C191.806 28.7527 191.428 29.0471 191.014 29.2587C190.205 29.6819 189.262 29.8936 188.185 29.8936H187.951Z" fill="white"/>
<path d="M197.695 19.4742H207.535V21.8341H200.966V23.3245H207.328V25.7672H200.966V27.3543H207.618V29.7417H197.695V19.4742Z" fill="white"/>
<path d="M219.361 29.7417L213.427 23.4763V29.7417H210.212V19.4742H213.579L219.347 25.6292V19.4742H222.549V29.7417H219.361Z" fill="white"/>
<path d="M231.124 29.9074C229.559 29.9074 228.285 29.6175 227.301 29.0379C226.445 28.5319 225.824 27.8603 225.438 27.0231C225.107 26.3238 224.941 25.5786 224.941 24.7874V24.3734C224.941 23.5821 225.107 22.8369 225.438 22.1377C225.843 21.2821 226.459 20.6196 227.287 20.1504C228.281 19.5892 229.559 19.3086 231.124 19.3086H231.758C233.966 19.3086 235.586 19.7686 236.616 20.6886C237.039 21.0659 237.343 21.4937 237.527 21.9721C237.72 22.4505 237.817 22.9473 237.817 23.4625V23.5315H234.422C234.394 23.4119 234.357 23.2877 234.311 23.1589C234.247 22.9657 234.104 22.7771 233.884 22.5931C233.672 22.4091 233.382 22.2481 233.014 22.1101C232.637 21.9629 232.113 21.8893 231.441 21.8893C230.328 21.8893 229.513 22.1699 228.998 22.7311C228.584 23.1819 228.377 23.7615 228.377 24.47V24.6494C228.377 24.953 228.428 25.2566 228.529 25.5602C228.63 25.8638 228.791 26.1398 229.012 26.3882C229.555 26.9955 230.369 27.2991 231.455 27.2991C232.586 27.2991 233.405 27.0553 233.911 26.5676C234.104 26.3928 234.238 26.2042 234.311 26.0018C234.357 25.873 234.394 25.7488 234.422 25.6292H237.817V25.712C237.817 26.3744 237.656 26.9955 237.334 27.5751C236.957 28.2559 236.345 28.7987 235.498 29.2035C234.514 29.6727 233.267 29.9074 231.758 29.9074H231.124Z" fill="white"/>
<path d="M243.651 29.7417V26.0294L238.42 19.4742H242.464L245.417 23.3245L248.384 19.4742H252L246.935 26.0432V29.7417H243.651Z" fill="white"/>
</svg>
