<?xml version="1.0" encoding="UTF-8"?>
<svg xmlns="http://www.w3.org/2000/svg" xmlns:xlink="http://www.w3.org/1999/xlink" width="122px" height="121px" viewBox="0 0 121 121" version="1.1">
<defs>
<linearGradient id="linear0" gradientUnits="userSpaceOnUse" x1="185.253" y1="241.66" x2="21.2528" y2="242.032" gradientTransform="matrix(0.456604,0,0,0.460076,0,0)">
<stop offset="0" style="stop-color:rgb(10.196078%,19.607843%,52.54902%);stop-opacity:1;"/>
<stop offset="0.479167" style="stop-color:rgb(11.764706%,51.372549%,87.843137%);stop-opacity:1;"/>
<stop offset="1" style="stop-color:rgb(10.196078%,19.607843%,52.54902%);stop-opacity:1;"/>
</linearGradient>
<linearGradient id="linear1" gradientUnits="userSpaceOnUse" x1="243.072" y1="241.66" x2="187.071" y2="241.703" gradientTransform="matrix(0.456604,0,0,0.460076,0,0)">
<stop offset="0" style="stop-color:rgb(10.196078%,19.607843%,52.54902%);stop-opacity:1;"/>
<stop offset="0.479167" style="stop-color:rgb(11.764706%,51.372549%,87.843137%);stop-opacity:1;"/>
<stop offset="1" style="stop-color:rgb(10.196078%,19.607843%,52.54902%);stop-opacity:1;"/>
</linearGradient>
<linearGradient id="linear2" gradientUnits="userSpaceOnUse" x1="179.435" y1="250.514" x2="158.168" y2="250.852" >
<stop offset="0" style="stop-color:rgb(10.196078%,19.607843%,52.54902%);stop-opacity:1;"/>
<stop offset="0.479167" style="stop-color:rgb(11.764706%,51.372549%,87.843137%);stop-opacity:1;"/>
<stop offset="1" style="stop-color:rgb(10.196078%,19.607843%,52.54902%);stop-opacity:1;"/>
</linearGradient>
<linearGradient id="linear3" gradientUnits="userSpaceOnUse" x1="128.162" y1="235.727" x2="142.89" y2="230.818" >
<stop offset="0" style="stop-color:rgb(11.372549%,43.137255%,78.431373%);stop-opacity:1;"/>
<stop offset="1" style="stop-color:rgb(11.372549%,36.862745%,71.764706%);stop-opacity:1;"/>
</linearGradient>
<linearGradient id="linear4" gradientUnits="userSpaceOnUse" x1="219.799" y1="240.636" x2="231.799" y2="234.091" >
<stop offset="0" style="stop-color:rgb(11.764706%,47.45098%,83.529412%);stop-opacity:1;"/>
<stop offset="1" style="stop-color:rgb(10.980392%,32.941176%,67.45098%);stop-opacity:1;"/>
</linearGradient>
<linearGradient id="linear5" gradientUnits="userSpaceOnUse" x1="59.9805" y1="235.727" x2="75.2532" y2="230.818" >
<stop offset="0" style="stop-color:rgb(10.980392%,34.117647%,68.627451%);stop-opacity:1;"/>
<stop offset="1" style="stop-color:rgb(11.372549%,39.607843%,74.901961%);stop-opacity:1;"/>
</linearGradient>
<linearGradient id="linear6" gradientUnits="userSpaceOnUse" x1="128.162" y1="246.091" x2="143.981" y2="240.637" >
<stop offset="0" style="stop-color:rgb(11.372549%,43.137255%,78.431373%);stop-opacity:1;"/>
<stop offset="1" style="stop-color:rgb(11.372549%,36.862745%,71.764706%);stop-opacity:1;"/>
</linearGradient>
<linearGradient id="linear7" gradientUnits="userSpaceOnUse" x1="264.832" y1="126.406" x2="0.16617" y2="126.656" gradientTransform="matrix(0.456604,0,0,0.460076,0,0)">
<stop offset="0" style="stop-color:rgb(10.196078%,19.607843%,52.54902%);stop-opacity:1;"/>
<stop offset="0.479167" style="stop-color:rgb(11.764706%,51.372549%,87.843137%);stop-opacity:1;"/>
<stop offset="1" style="stop-color:rgb(10.196078%,19.607843%,52.54902%);stop-opacity:1;"/>
</linearGradient>
</defs>
<g id="surface1">
<path style=" stroke:none;fill-rule:nonzero;fill:url(#linear0);" d="M 10.132812 105.832031 L 10.132812 103.777344 L 22.328125 103.777344 L 22.328125 105.832031 L 17.480469 105.832031 L 17.480469 115.019531 L 14.996094 115.019531 L 14.996094 105.832031 Z M 34.449219 115.019531 L 30.367188 110.746094 L 27.480469 110.746094 L 27.480469 115.019531 L 24.996094 115.019531 L 24.996094 103.777344 L 32.660156 103.777344 C 33.949219 103.777344 34.988281 104.082031 35.785156 104.691406 C 36.59375 105.292969 36.996094 106.175781 36.996094 107.339844 C 36.996094 108.421875 36.65625 109.242188 35.976562 109.800781 C 35.308594 110.34375 34.390625 110.65625 33.21875 110.730469 L 37.621094 115.019531 Z M 27.480469 105.785156 L 27.480469 108.851562 L 32.535156 108.851562 C 33.140625 108.851562 33.617188 108.722656 33.96875 108.464844 C 34.332031 108.199219 34.511719 107.824219 34.511719 107.339844 C 34.511719 106.847656 34.332031 106.46875 33.96875 106.203125 C 33.609375 105.921875 33.128906 105.785156 32.535156 105.785156 Z M 49.875 103.777344 L 52.363281 103.777344 L 52.363281 110.328125 C 52.363281 111.882812 51.832031 113.085938 50.769531 113.941406 C 49.714844 114.789062 48.15625 115.210938 46.082031 115.210938 C 44.011719 115.210938 42.441406 114.789062 41.378906 113.941406 C 40.316406 113.085938 39.785156 111.882812 39.785156 110.328125 L 39.785156 103.777344 L 42.273438 103.777344 L 42.273438 110.089844 C 42.273438 111.074219 42.585938 111.832031 43.214844 112.367188 C 43.839844 112.894531 44.796875 113.15625 46.082031 113.15625 C 47.355469 113.15625 48.308594 112.894531 48.933594 112.367188 C 49.5625 111.832031 49.875 111.074219 49.875 110.089844 Z M 64.933594 109.269531 C 67.199219 109.484375 68.328125 110.386719 68.328125 111.984375 C 68.328125 112.9375 67.929688 113.679688 67.132812 114.214844 C 66.335938 114.75 65.179688 115.019531 63.660156 115.019531 L 56.054688 115.019531 L 56.054688 103.777344 L 63.675781 103.777344 C 64.960938 103.777344 65.980469 104.050781 66.734375 104.59375 C 67.5 105.132812 67.882812 105.84375 67.882812 106.730469 C 67.882812 107.460938 67.613281 108.039062 67.070312 108.464844 C 66.539062 108.882812 65.828125 109.152344 64.933594 109.269531 Z M 58.542969 105.71875 L 58.542969 108.402344 L 63.546875 108.402344 C 64.101562 108.402344 64.546875 108.285156 64.886719 108.046875 C 65.226562 107.800781 65.394531 107.46875 65.394531 107.054688 C 65.394531 106.625 65.226562 106.296875 64.886719 106.074219 C 64.554688 105.835938 64.109375 105.71875 63.546875 105.71875 Z M 63.417969 113.074219 C 64.238281 113.074219 64.84375 112.96875 65.238281 112.753906 C 65.640625 112.53125 65.84375 112.164062 65.84375 111.664062 C 65.84375 110.730469 65.089844 110.265625 63.578125 110.265625 L 58.542969 110.265625 L 58.542969 113.074219 Z M 81.773438 115.019531 L 80.609375 112.496094 L 73.566406 112.496094 L 72.402344 115.019531 L 69.929688 115.019531 L 75.222656 103.777344 L 79.03125 103.777344 L 84.324219 115.019531 Z M 74.425781 110.617188 L 79.75 110.617188 L 77.089844 104.835938 Z M 74.425781 110.617188 "/>
<path style="fill-rule:nonzero;fill:rgb(100%,100%,100%);fill-opacity:1;stroke-width:0.545455;stroke-linecap:butt;stroke-linejoin:miter;stroke:rgb(100%,100%,100%);stroke-opacity:1;stroke-miterlimit:4;" d="M 159.405507 246.689857 L 158.986312 244.889882 L 155.769628 242.588972 L 154.315276 243.259717 L 157.369415 245.721946 Z M 159.405507 246.689857 " transform="matrix(0.456604,0,0,0.460076,0,0)"/>
<path style="fill-rule:nonzero;fill:rgb(100%,100%,100%);fill-opacity:1;stroke-width:0.545455;stroke-linecap:butt;stroke-linejoin:miter;stroke:rgb(100%,100%,100%);stroke-opacity:1;stroke-miterlimit:4;" d="M 178.19231 246.689857 L 178.611506 244.889882 L 181.82819 242.588972 L 183.282541 243.259717 L 180.219848 245.721946 Z M 178.19231 246.689857 " transform="matrix(0.456604,0,0,0.460076,0,0)"/>
<path style=" stroke:none;fill-rule:nonzero;fill:rgb(100%,100%,100%);fill-opacity:1;" d="M 69.476562 112.46875 L 85.667969 112.46875 L 85.667969 115.480469 L 69.476562 115.480469 Z M 69.476562 112.46875 "/>
<path style=" stroke:none;fill-rule:nonzero;fill:url(#linear1);" d="M 89.507812 113.042969 L 96.710938 113.042969 L 96.710938 115.019531 L 85.746094 115.019531 L 85.746094 113.203125 L 92.058594 109.171875 C 92.707031 108.789062 93.179688 108.445312 93.476562 108.144531 C 93.785156 107.835938 93.9375 107.464844 93.9375 107.035156 C 93.9375 106.535156 93.714844 106.164062 93.269531 105.929688 C 92.824219 105.683594 92.226562 105.558594 91.484375 105.558594 C 89.65625 105.558594 88.636719 106.28125 88.421875 107.726562 L 86.113281 107.582031 C 86.25 106.234375 86.796875 105.234375 87.753906 104.578125 C 88.722656 103.914062 89.960938 103.582031 91.46875 103.582031 C 92.902344 103.582031 94.070312 103.867188 94.976562 104.433594 C 95.878906 104.992188 96.328125 105.8125 96.328125 106.890625 C 96.328125 107.554688 96.113281 108.160156 95.675781 108.707031 C 95.242188 109.242188 94.496094 109.832031 93.445312 110.472656 Z M 108.078125 110.632812 L 110.4375 110.632812 L 110.4375 112.609375 L 108.078125 112.609375 L 108.078125 115.019531 L 105.683594 115.019531 L 105.683594 112.609375 L 98.019531 112.609375 L 98.019531 110.796875 L 104.203125 103.777344 L 108.078125 103.777344 Z M 100.632812 110.632812 L 105.683594 110.632812 L 105.683594 104.933594 Z M 100.632812 110.632812 "/>
<path style=" stroke:none;fill-rule:nonzero;fill:rgb(100%,100%,100%);fill-opacity:1;" d="M 89.507812 113.042969 L 88.832031 111.992188 L 85.296875 114.296875 L 89.507812 114.296875 Z M 96.710938 113.042969 L 97.957031 113.042969 L 97.957031 111.789062 L 96.710938 111.789062 Z M 96.710938 115.019531 L 96.710938 116.273438 L 97.957031 116.273438 L 97.957031 115.019531 Z M 85.746094 115.019531 L 84.5 115.019531 L 84.5 116.273438 L 85.746094 116.273438 Z M 85.746094 113.203125 L 85.078125 112.144531 L 84.5 112.515625 L 84.5 113.203125 Z M 92.058594 109.171875 L 91.425781 108.09375 L 91.40625 108.101562 L 91.390625 108.113281 Z M 93.476562 108.144531 L 92.597656 107.257812 Z M 93.269531 105.929688 L 92.671875 107.03125 L 92.679688 107.035156 L 92.691406 107.039062 Z M 88.421875 107.726562 L 88.347656 108.980469 L 89.488281 109.050781 L 89.65625 107.910156 Z M 86.113281 107.582031 L 84.875 107.453125 L 84.742188 108.753906 L 86.035156 108.835938 Z M 87.753906 104.578125 L 88.453125 105.617188 L 88.457031 105.617188 Z M 94.976562 104.433594 L 94.316406 105.5 L 94.320312 105.503906 L 94.324219 105.503906 Z M 95.675781 108.707031 L 96.640625 109.503906 L 96.644531 109.5 L 96.648438 109.492188 Z M 93.445312 110.472656 L 92.800781 109.402344 L 92.785156 109.410156 L 92.769531 109.421875 Z M 89.507812 114.296875 L 96.710938 114.296875 L 96.710938 111.789062 L 89.507812 111.789062 Z M 95.46875 113.042969 L 95.46875 115.019531 L 97.957031 115.019531 L 97.957031 113.042969 Z M 96.710938 113.765625 L 85.746094 113.765625 L 85.746094 116.273438 L 96.710938 116.273438 Z M 86.992188 115.019531 L 86.992188 113.203125 L 84.5 113.203125 L 84.5 115.019531 Z M 86.414062 114.265625 L 92.726562 110.234375 L 91.390625 108.113281 L 85.078125 112.144531 Z M 92.691406 110.253906 C 93.371094 109.847656 93.949219 109.441406 94.355469 109.03125 L 92.597656 107.257812 C 92.410156 107.445312 92.042969 107.726562 91.425781 108.09375 Z M 94.355469 109.03125 C 94.890625 108.492188 95.183594 107.808594 95.183594 107.035156 L 92.695312 107.035156 C 92.695312 107.125 92.675781 107.175781 92.597656 107.257812 Z M 95.183594 107.035156 C 95.183594 106.59375 95.082031 106.140625 94.835938 105.730469 C 94.585938 105.320312 94.234375 105.023438 93.847656 104.816406 L 92.691406 107.039062 C 92.722656 107.054688 92.734375 107.066406 92.730469 107.0625 C 92.730469 107.0625 92.726562 107.0625 92.722656 107.054688 C 92.71875 107.050781 92.710938 107.042969 92.707031 107.035156 C 92.703125 107.027344 92.699219 107.019531 92.695312 107.011719 C 92.691406 107.003906 92.691406 107 92.691406 106.996094 C 92.691406 106.992188 92.695312 107.003906 92.695312 107.035156 Z M 93.867188 104.828125 C 93.171875 104.445312 92.347656 104.304688 91.484375 104.304688 L 91.484375 106.8125 C 92.109375 106.8125 92.472656 106.921875 92.671875 107.03125 Z M 91.484375 104.304688 C 90.425781 104.304688 89.429688 104.511719 88.632812 105.074219 C 87.796875 105.667969 87.339844 106.542969 87.191406 107.542969 L 89.65625 107.910156 C 89.722656 107.46875 89.878906 107.257812 90.066406 107.128906 C 90.289062 106.96875 90.714844 106.8125 91.484375 106.8125 Z M 88.5 106.476562 L 86.1875 106.332031 L 86.035156 108.835938 L 88.347656 108.980469 Z M 87.351562 107.710938 C 87.457031 106.664062 87.851562 106.027344 88.453125 105.617188 L 87.054688 103.542969 C 85.742188 104.4375 85.042969 105.804688 84.875 107.453125 Z M 88.457031 105.617188 C 89.164062 105.128906 90.136719 104.839844 91.46875 104.839844 L 91.46875 102.328125 C 89.78125 102.328125 88.28125 102.699219 87.054688 103.542969 Z M 91.46875 104.839844 C 92.75 104.839844 93.667969 105.09375 94.316406 105.5 L 95.632812 103.371094 C 94.476562 102.640625 93.058594 102.328125 91.46875 102.328125 Z M 94.324219 105.503906 C 94.851562 105.832031 95.085938 106.242188 95.085938 106.890625 L 97.574219 106.890625 C 97.574219 105.382812 96.902344 104.152344 95.625 103.363281 Z M 95.085938 106.890625 C 95.085938 107.253906 94.972656 107.585938 94.707031 107.921875 L 96.648438 109.492188 C 97.25 108.738281 97.574219 107.859375 97.574219 106.890625 Z M 94.714844 107.910156 C 94.410156 108.28125 93.808594 108.78125 92.800781 109.402344 L 94.089844 111.546875 C 95.183594 110.878906 96.070312 110.203125 96.640625 109.503906 Z M 92.769531 109.421875 L 88.832031 111.992188 L 90.183594 114.097656 L 94.121094 111.527344 Z M 108.078125 110.632812 L 106.832031 110.632812 L 106.832031 111.890625 L 108.078125 111.890625 Z M 110.4375 110.632812 L 111.679688 110.632812 L 111.679688 109.378906 L 110.4375 109.378906 Z M 110.4375 112.609375 L 110.4375 113.863281 L 111.679688 113.863281 L 111.679688 112.609375 Z M 108.078125 112.609375 L 108.078125 111.355469 L 106.832031 111.355469 L 106.832031 112.609375 Z M 108.078125 115.019531 L 108.078125 116.273438 L 109.320312 116.273438 L 109.320312 115.019531 Z M 105.683594 115.019531 L 104.441406 115.019531 L 104.441406 116.273438 L 105.683594 116.273438 Z M 105.683594 112.609375 L 106.929688 112.609375 L 106.929688 111.355469 L 105.683594 111.355469 Z M 98.019531 112.609375 L 96.773438 112.609375 L 96.773438 113.863281 L 98.019531 113.863281 Z M 98.019531 110.796875 L 97.085938 109.960938 L 96.773438 110.320312 L 96.773438 110.796875 Z M 104.203125 103.777344 L 104.203125 102.523438 L 103.644531 102.523438 L 103.273438 102.945312 Z M 108.078125 103.777344 L 109.320312 103.777344 L 109.320312 102.523438 L 108.078125 102.523438 Z M 100.632812 110.632812 L 99.703125 109.796875 L 97.851562 111.890625 L 100.632812 111.890625 Z M 105.683594 110.632812 L 105.683594 111.890625 L 106.929688 111.890625 L 106.929688 110.632812 Z M 105.683594 104.933594 L 106.929688 104.933594 L 106.929688 101.644531 L 104.757812 104.097656 Z M 108.078125 111.890625 L 110.4375 111.890625 L 110.4375 109.378906 L 108.078125 109.378906 Z M 109.191406 110.632812 L 109.191406 112.609375 L 111.679688 112.609375 L 111.679688 110.632812 Z M 110.4375 111.355469 L 108.078125 111.355469 L 108.078125 113.863281 L 110.4375 113.863281 Z M 106.832031 112.609375 L 106.832031 115.019531 L 109.320312 115.019531 L 109.320312 112.609375 Z M 108.078125 113.765625 L 105.683594 113.765625 L 105.683594 116.273438 L 108.078125 116.273438 Z M 106.929688 115.019531 L 106.929688 112.609375 L 104.441406 112.609375 L 104.441406 115.019531 Z M 105.683594 111.355469 L 98.019531 111.355469 L 98.019531 113.863281 L 105.683594 113.863281 Z M 99.265625 112.609375 L 99.265625 110.796875 L 96.773438 110.796875 L 96.773438 112.609375 Z M 98.949219 111.628906 L 105.132812 104.609375 L 103.273438 102.945312 L 97.085938 109.960938 Z M 104.203125 105.03125 L 108.078125 105.03125 L 108.078125 102.523438 L 104.203125 102.523438 Z M 106.832031 103.777344 L 106.832031 110.632812 L 109.320312 110.632812 L 109.320312 103.777344 Z M 100.632812 111.890625 L 105.683594 111.890625 L 105.683594 109.378906 L 100.632812 109.378906 Z M 106.929688 110.632812 L 106.929688 104.933594 L 104.441406 104.933594 L 104.441406 110.632812 Z M 104.757812 104.097656 L 99.703125 109.796875 L 101.5625 111.46875 L 106.613281 105.769531 Z M 104.757812 104.097656 "/>
<path style="fill:none;stroke-width:1.63636;stroke-linecap:butt;stroke-linejoin:miter;stroke:url(#linear2);stroke-miterlimit:4;" d="M 158.165031 249.092652 L 179.432787 249.092652 " transform="matrix(0.456604,0,0,0.460076,0,0)"/>
<path style="fill:none;stroke-width:0.545455;stroke-linecap:round;stroke-linejoin:miter;stroke:url(#linear3);stroke-miterlimit:4;" d="M 128.33371 235.380585 L 142.543582 230.642917 " transform="matrix(0.456604,0,0,0.460076,0,0)"/>
<path style="fill:none;stroke-width:0.545455;stroke-linecap:round;stroke-linejoin:miter;stroke:url(#linear4);stroke-miterlimit:4;" d="M 219.906541 240.26259 L 231.430139 233.979662 " transform="matrix(0.456604,0,0,0.460076,0,0)"/>
<path style="fill:none;stroke-width:0.545455;stroke-linecap:round;stroke-linejoin:miter;stroke:url(#linear5);stroke-miterlimit:4;" d="M 60.158833 235.380585 L 74.90767 230.642917 " transform="matrix(0.456604,0,0,0.460076,0,0)"/>
<path style="fill:none;stroke-width:0.545455;stroke-linecap:round;stroke-linejoin:miter;stroke:url(#linear6);stroke-miterlimit:4;" d="M 128.33371 245.747417 L 143.630068 240.466361 " transform="matrix(0.456604,0,0,0.460076,0,0)"/>
<path style=" stroke:none;fill-rule:evenodd;fill:url(#linear7);" d="M 4.871094 63.300781 C 4.871094 73.734375 7.585938 83.527344 12.339844 92.007812 C 5.53125 82.597656 1.515625 71.003906 1.515625 58.46875 C 1.515625 26.976562 26.851562 1.449219 58.101562 1.449219 C 70.546875 1.449219 82.050781 5.496094 91.394531 12.355469 C 82.976562 7.566406 73.253906 4.832031 62.898438 4.832031 C 30.851562 4.832031 4.871094 31.007812 4.871094 63.300781 Z M 13.738281 96.15625 C 5.214844 85.980469 0.078125 72.828125 0.078125 58.46875 C 0.078125 26.175781 26.054688 0 58.101562 0 C 75.347656 0 90.832031 7.578125 101.460938 19.613281 C 113.402344 30.320312 120.921875 45.925781 120.921875 63.300781 C 120.921875 75.480469 117.226562 86.792969 110.898438 96.15625 L 100.5625 96.15625 C 101.441406 95.152344 102.285156 94.117188 103.089844 93.054688 C 109.175781 84.726562 112.769531 74.433594 112.769531 63.300781 C 112.769531 50.210938 107.804688 38.292969 99.667969 29.347656 C 104.5 37.945312 107.257812 47.882812 107.257812 58.464844 C 107.257812 72.785156 102.210938 85.917969 93.8125 96.15625 L 91.925781 96.15625 C 100.582031 86.042969 105.816406 72.871094 105.816406 58.464844 C 105.816406 46.019531 101.910156 34.492188 95.257812 25.0625 C 86.546875 17.570312 75.246094 13.046875 62.898438 13.046875 C 35.351562 13.046875 13.023438 35.546875 13.023438 63.300781 C 13.023438 75.859375 17.597656 87.347656 25.160156 96.15625 Z M 13.738281 96.15625 "/>
</g>
</svg>
