<svg width="15" height="12" viewBox="0 0 15 12" fill="none" xmlns="http://www.w3.org/2000/svg">
<path d="M0.108398 0.867188V1.41924V10.6766V11.2286H14.5662V10.6766V1.41924V0.867188H0.108398ZM8.9337 6.18381L7.62141 7.50237C7.46189 7.65056 7.21225 7.65032 7.05948 7.50863L5.74069 6.18381L5.75225 6.17249L0.987194 1.34912H13.6906L8.92213 6.17273L8.9337 6.18381ZM5.05394 6.17634L0.590326 10.4708V1.69201L5.05394 6.17634ZM5.3937 6.51779L6.72454 7.8549C6.89539 8.01418 7.11466 8.09418 7.3349 8.09418C7.55731 8.09418 7.78069 8.01249 7.95683 7.84839L9.28117 6.51779L13.6756 10.7467H0.996591L5.3937 6.51779ZM9.62093 6.17659L14.0843 1.69177V10.4708L9.62093 6.17659Z" fill="white"/>
</svg>
