<svg width="11" height="12" viewBox="0 0 11 12" fill="none" xmlns="http://www.w3.org/2000/svg">
<path d="M10.241 8.38559C9.48795 8.38559 8.76506 8.26511 8.09036 8.04222C7.87952 7.97595 7.64458 8.02414 7.4759 8.18679L6.1506 9.5121C4.44578 8.64463 3.04819 7.25306 2.18072 5.54222L3.50602 4.21089C3.6747 4.05426 3.72289 3.81932 3.65663 3.60848C3.43373 2.93378 3.31325 2.21089 3.31325 1.45788C3.31325 1.12655 3.04217 0.855469 2.71084 0.855469H0.60241C0.271084 0.855469 0 1.12655 0 1.45788C0 7.1145 4.58434 11.6988 10.241 11.6988C10.5723 11.6988 10.8434 11.4278 10.8434 11.0964V8.988C10.8434 8.65667 10.5723 8.38559 10.241 8.38559ZM9.63855 6.27715H10.8434C10.8434 3.28318 8.41566 0.855469 5.42169 0.855469V2.06029C7.75301 2.06029 9.63855 3.94583 9.63855 6.27715ZM7.22892 6.27715H8.43373C8.43373 4.6145 7.08434 3.26511 5.42169 3.26511V4.46993C6.42169 4.46993 7.22892 5.27716 7.22892 6.27715Z" fill="white"/>
</svg>
