<svg width="10" height="8" viewBox="0 0 10 8" fill="none" xmlns="http://www.w3.org/2000/svg">
<path d="M4.79864 7.50112C4.46298 7.107 3.90267 6.68547 3.36003 6.41878C2.81211 6.14946 2.29167 5.99989 1.70078 5.94205C1.58427 5.93075 1.48768 5.9202 1.48614 5.9187C1.48463 5.9187 1.48765 4.70231 1.49367 3.219L1.50361 0.522167L1.61119 0.532711C2.27175 0.598234 3.00902 0.847824 3.56686 1.1957C4.04761 1.49545 4.54404 1.95833 4.86055 2.40185L4.9402 2.51346V5.07518C4.9402 6.48408 4.93418 7.63661 4.92695 7.63638C4.91942 7.63615 4.8621 7.57538 4.79897 7.50127L4.79864 7.50112ZM5.34584 5.06871V2.49629L5.49966 2.29076C5.69606 2.02837 6.09109 1.63304 6.35231 1.43761C7.05057 0.915004 7.80801 0.619698 8.6776 0.530828L8.78791 0.519531V3.22013V5.92081L8.65994 5.93286C7.44911 6.04553 6.39939 6.54508 5.57832 7.39929L5.34584 7.6412V5.06878V5.06871ZM6.09604 7.46632C6.57128 7.02046 7.20041 6.66619 7.83237 6.48837C8.16307 6.39536 8.59313 6.33044 8.87861 6.33044C9.02829 6.33044 9.11132 6.29805 9.15815 6.22116C9.1934 6.16317 9.19377 6.13824 9.19385 3.94992L9.19391 1.73705L9.26011 1.7491C9.29649 1.75663 9.39977 1.78525 9.48958 1.81387L9.65285 1.86584V4.62752C9.65285 6.14645 9.64683 7.3892 9.63937 7.3892C9.63184 7.3892 9.52272 7.36585 9.39666 7.33723C8.89851 7.22502 8.48827 7.18646 7.94949 7.20099C7.29598 7.21907 6.78809 7.3102 6.18433 7.51882L5.95485 7.59812L6.09607 7.46564L6.09604 7.46632ZM4.08375 7.50925C3.83301 7.41948 3.41892 7.31366 3.13938 7.26802C2.75929 7.20626 2.49706 7.18984 2.03122 7.20024C1.56835 7.21003 1.28838 7.24241 0.90645 7.3291C0.799655 7.3532 0.690435 7.37805 0.663736 7.38333L0.615234 7.39387L0.615317 4.62481L0.615408 1.85567L0.822739 1.79542C0.936764 1.76228 1.04 1.7314 1.05213 1.72764C1.06968 1.72011 1.0742 2.17124 1.0742 3.93802C1.0742 6.35236 1.06892 6.21777 1.17194 6.28548C1.20779 6.30882 1.28227 6.31937 1.49498 6.33217C2.34035 6.38037 3.14249 6.66423 3.79734 7.14722C3.93855 7.25138 4.27746 7.53742 4.29688 7.56882C4.31044 7.59066 4.3014 7.5884 4.0838 7.51008L4.08375 7.50925Z" fill="#1D5DB5"/>
</svg>
