<svg width="12" height="9" viewBox="0 0 12 9" fill="none" xmlns="http://www.w3.org/2000/svg">
<path d="M0 0V0.4582V8.1418V8.6H12V8.1418V0.4582V0H0ZM7.325 4.4128L6.2358 5.5072C6.1034 5.6302 5.8962 5.63 5.7694 5.5124L4.6748 4.4128L4.6844 4.4034L0.7294 0.4H11.2732L7.3154 4.4036L7.325 4.4128ZM4.1048 4.4066L0.4 7.971V0.6846L4.1048 4.4066ZM4.3868 4.69L5.4914 5.7998C5.6332 5.932 5.8152 5.9984 5.998 5.9984C6.1826 5.9984 6.368 5.9306 6.5142 5.7944L7.6134 4.69L11.2608 8.2H0.7372L4.3868 4.69ZM7.8954 4.4068L11.6 0.6844V7.971L7.8954 4.4068Z" fill="white"/>
</svg>
