<svg width="7" height="7" viewBox="0 0 7 7" fill="none" xmlns="http://www.w3.org/2000/svg">
<path opacity="0.8" d="M6.61111 4.86111C6.125 4.86111 5.65833 4.78333 5.22278 4.63944C5.08667 4.59667 4.935 4.62778 4.82611 4.73278L3.97056 5.58833C2.87 5.02833 1.96778 4.13 1.40778 3.02556L2.26333 2.16611C2.37222 2.065 2.40333 1.91333 2.36056 1.77722C2.21667 1.34167 2.13889 0.875 2.13889 0.388889C2.13889 0.175 1.96389 0 1.75 0H0.388889C0.175 0 0 0.175 0 0.388889C0 4.04056 2.95944 7 6.61111 7C6.825 7 7 6.825 7 6.61111V5.25C7 5.03611 6.825 4.86111 6.61111 4.86111ZM6.22222 3.5H7C7 1.56722 5.43278 0 3.5 0V0.777778C5.005 0.777778 6.22222 1.995 6.22222 3.5ZM4.66667 3.5H5.44444C5.44444 2.42667 4.57333 1.55556 3.5 1.55556V2.33333C4.14556 2.33333 4.66667 2.85444 4.66667 3.5Z" fill="black"/>
</svg>
